<?xml version="1.0" encoding="UTF-8"?>
<svg width="18px" height="12px" viewBox="0 0 18 12" version="1.1" xmlns="http://www.w3.org/2000/svg" xmlns:xlink="http://www.w3.org/1999/xlink">
    <!-- Generator: Sketch 51.3 (57544) - http://www.bohemiancoding.com/sketch -->
    <title>Shape</title>
    <desc>Created with Sketch.</desc>
    <defs></defs>
    <g id="Symbols" stroke="none" stroke-width="1" fill="none" fill-rule="evenodd">
        <g id="UI/Icon/18-tiling" transform="translate(0.000000, -3.000000)" fill="#0070C9">
            <path d="M17.8177501,9.40305882 L12.6855018,6.50470588 L13.3260016,6.12141176 C13.4340016,6.05647059 13.4992515,5.94423529 13.4992515,5.82352941 C13.4992515,5.70282353 13.4340016,5.59058824 13.3260016,5.52564706 L9.20100299,3.05505882 C9.07800303,2.98164706 8.92125309,2.98164706 8.79825313,3.05505882 L4.67325453,5.52564706 C4.56525457,5.59058824 4.50000459,5.70282353 4.50000459,5.82352941 C4.50000459,5.94423529 4.56525457,6.05647059 4.67325453,6.12141176 L5.31375431,6.50541176 L0.182256056,9.40305882 C0.0697560944,9.46658824 6.1181072e-06,9.58094118 6.1181072e-06,9.70447059 C-0.000743881638,9.828 0.0675060952,9.94305882 0.180006057,10.0072941 L8.80500313,14.9484706 C8.8650031,14.9830588 8.93250308,15 9.00000306,15 C9.06750304,15 9.13500301,14.9830588 9.19500299,14.9484706 L17.8200001,10.0072941 C17.9325,9.94235294 18,9.828 18,9.70447059 C17.99925,9.58094118 17.93025,9.46658824 17.8177501,9.40305882 Z M9.00000306,3.77152941 L12.4267519,5.82352941 L9.00000306,7.87552941 L5.57325422,5.82352941 L9.00000306,3.77152941 Z M8.79825313,8.592 C8.85975311,8.62870588 8.93025308,8.64705882 9.00000306,8.64705882 C9.06975304,8.64705882 9.14025301,8.62870588 9.20100299,8.592 L11.978252,6.92823529 L12.4725019,7.20776471 L9.00000306,9.288 L5.52675424,7.20776471 L6.02100407,6.92894118 L8.79825313,8.592 Z M4.80825448,7.61364706 L8.3017533,9.70588235 L4.77975449,11.8150588 L1.10025574,9.70658824 L4.80825448,7.61364706 Z M9.00000306,14.2334118 L5.49375425,12.2244706 L9.00000306,10.1244706 L12.5062519,12.2244706 L9.00000306,14.2334118 Z M13.2202516,11.8157647 L9.69825282,9.70588235 L13.1917516,7.61364706 L16.8997504,9.70729412 L13.2202516,11.8157647 Z" id="Shape"></path>
        </g>
    </g>
</svg>