<?xml version="1.0" encoding="UTF-8"?>
<svg width="22px" height="32px" viewBox="0 0 22 32" version="1.1" xmlns="http://www.w3.org/2000/svg" xmlns:xlink="http://www.w3.org/1999/xlink">
    <!-- Generator: Sketch 51.3 (57544) - http://www.bohemiancoding.com/sketch -->
    <title>Path</title>
    <desc>Created with Sketch.</desc>
    <defs></defs>
    <g id="Design" stroke="none" stroke-width="1" fill="none" fill-rule="evenodd">
        <g id="Welcome" transform="translate(-677.000000, -271.000000)" fill="#767676">
            <g id="Group-2" transform="translate(578.000000, 220.000000)">
                <path d="M104.777911,65.9213905 L107,63.9865481 L107,79.5002849 C107,81.4301278 108.144058,83 109.997599,83 C111.85114,83 113,81.4301278 113,79.5002849 L113,63.9865481 L115.217287,65.9213905 C115.855942,66.5863364 116.705882,66.9513067 117.613445,66.9513067 C118.516206,66.9513067 119.366146,66.5863364 120.009604,65.9213905 C121.330132,64.5465025 121.330132,62.3116844 120.009604,60.9367964 L110.746699,51.2975812 C110.540216,51.0825987 110.266507,50.9876064 109.997599,51.0026052 C109.728691,50.9826068 109.454982,51.0775991 109.248499,51.2925816 L99.9903962,60.9367964 C98.6698679,62.3116844 98.6698679,64.5465025 99.9903962,65.9213905 C101.310924,67.2962786 103.457383,67.2962786 104.777911,65.9213905 Z" id="Path"></path>
            </g>
        </g>
    </g>
</svg>