<?xml version="1.0" encoding="UTF-8"?>
<svg width="53px" height="53px" viewBox="0 0 53 53" version="1.1" xmlns="http://www.w3.org/2000/svg" xmlns:xlink="http://www.w3.org/1999/xlink">
    <!-- Generator: Sketch 51.3 (57544) - http://www.bohemiancoding.com/sketch -->
    <title>Shape</title>
    <desc>Created with Sketch.</desc>
    <defs></defs>
    <g id="Symbols" stroke="none" stroke-width="1" fill="none" fill-rule="evenodd">
        <g id="UI/Icon/Wallet" transform="translate(-7.000000, -4.000000)" fill="#0070C9">
            <path d="M55.4571429,19.5882353 C57.9660114,19.5882353 60,21.6820471 60,24.2647059 L60,36.7352941 C60,39.3179529 57.9660114,41.4117647 55.4571429,41.4117647 L55.4571429,52.3235294 C55.4571429,54.9061882 53.4231543,57 50.9142857,57 L11.5428571,57 C9.03398857,57 7,54.9061882 7,52.3235294 L7,8.67647059 C7,6.09381176 9.03398857,4 11.5428571,4 L50.9142857,4 C53.4231543,4 55.4571429,6.09381176 55.4571429,8.67647059 L55.4571429,19.5882353 Z M50.725,52.1416667 L50.725,41.3208333 L40.1419872,41.3208333 C37.6371392,41.3208333 35.6064103,39.24447 35.6064103,36.6833333 L35.6064103,24.3166667 C35.6064103,21.75553 37.6371392,19.6791667 40.1419872,19.6791667 L50.725,19.6791667 L50.725,8.85833333 L11.4166667,8.85833333 L11.4166667,52.1416667 L50.725,52.1416667 Z M55.5833333,36.6833333 L55.5833333,24.3166667 L40.125,24.3166667 L40.125,36.6833333 L55.5833333,36.6833333 Z M46.3083333,33.5916667 C44.600853,33.5916667 43.2166667,32.2074804 43.2166667,30.5 C43.2166667,28.7925196 44.600853,27.4083333 46.3083333,27.4083333 C48.0158137,27.4083333 49.4,28.7925196 49.4,30.5 C49.4,32.2074804 48.0158137,33.5916667 46.3083333,33.5916667 Z M41.8916667,11.95 L48.075,11.95 L48.075,15.4833333 L41.8916667,15.4833333 L41.8916667,11.95 Z M32.6166667,11.95 L38.8,11.95 L38.8,15.4833333 L32.6166667,15.4833333 L32.6166667,11.95 Z M23.7833333,11.95 L29.9666667,11.95 L29.9666667,15.4833333 L23.7833333,15.4833333 L23.7833333,11.95 Z M14.5083333,11.95 L20.6916667,11.95 L20.6916667,15.4833333 L14.5083333,15.4833333 L14.5083333,11.95 Z M41.8916667,45.9583333 L48.075,45.9583333 L48.075,49.4916667 L41.8916667,49.4916667 L41.8916667,45.9583333 Z M32.6166667,45.9583333 L38.8,45.9583333 L38.8,49.4916667 L32.6166667,49.4916667 L32.6166667,45.9583333 Z M23.7833333,45.9583333 L29.9666667,45.9583333 L29.9666667,49.4916667 L23.7833333,49.4916667 L23.7833333,45.9583333 Z M14.5083333,45.9583333 L20.6916667,45.9583333 L20.6916667,49.4916667 L14.5083333,49.4916667 L14.5083333,45.9583333 Z M26.5805556,32.077381 L20.5444444,32.077381 L20.5444444,35.2321429 L29.5986111,35.2321429 L29.5986111,38.3869048 L20.5444444,38.3869048 L20.5444444,41.5416667 L17.5263889,41.5416667 L17.5263889,38.3869048 L14.5083333,38.3869048 L14.5083333,35.2321429 L17.5263889,35.2321429 L17.5263889,32.077381 L14.5083333,32.077381 L14.5083333,28.922619 L17.5263889,28.922619 L17.5263889,19.4583333 L26.5805556,19.4583333 C29.9088672,19.4583333 32.6166667,22.2887857 32.6166667,25.7678571 C32.6166667,29.2469286 29.9088672,32.077381 26.5805556,32.077381 Z M20.6916667,22.9916667 L20.6916667,29.175 L26.875,29.175 C28.579745,29.175 29.9666667,27.7880783 29.9666667,26.0833333 C29.9666667,24.3785883 28.579745,22.9916667 26.875,22.9916667 L20.6916667,22.9916667 Z" id="Shape"></path>
        </g>
    </g>
</svg>