<?xml version="1.0" encoding="UTF-8"?>
<svg width="22px" height="16px" viewBox="0 0 22 16" version="1.1" xmlns="http://www.w3.org/2000/svg" xmlns:xlink="http://www.w3.org/1999/xlink">
    <!-- Generator: Sketch 51.3 (57544) - http://www.bohemiancoding.com/sketch -->
    <title>Path</title>
    <desc>Created with Sketch.</desc>
    <defs></defs>
    <g id="Symbols" stroke="none" stroke-width="1" fill="none" fill-rule="evenodd">
        <g id="UI/Input/Checkbox" transform="translate(-5.000000, -8.000000)" fill="#0070C9">
            <g id="Checkbox">
                <path d="M24.4194857,8.00000021 C23.8680637,7.99974986 23.3392496,8.22263587 22.9499384,8.61938909 L13.3239837,18.397799 L8.55383311,13.5510384 C8.02871575,13.015398 7.26196123,12.8055528 6.54307174,13.0007338 C5.82418225,13.1959147 5.26267804,13.7663866 5.07056532,14.4967574 C4.8784526,15.2271282 5.08499905,16.0061285 5.61221927,16.5396324 L11.8531767,22.88069 C12.2431502,23.2772104 12.772256,23.5 13.3239837,23.5 C13.8757113,23.5 14.4048171,23.2772104 14.7947906,22.88069 L25.8902926,11.6079831 C26.4854775,11.0036353 26.6636268,10.0944888 26.3416391,9.30463257 C26.0196515,8.51477637 25.2609657,7.99982999 24.4194857,8.00000021 Z" id="Path"></path>
            </g>
        </g>
    </g>
</svg>