<?xml version="1.0" encoding="UTF-8"?>
<svg width="18px" height="18px" viewBox="0 0 18 18" version="1.1" xmlns="http://www.w3.org/2000/svg" xmlns:xlink="http://www.w3.org/1999/xlink">
    <!-- Generator: Sketch 51.3 (57544) - http://www.bohemiancoding.com/sketch -->
    <title>a8897b349d</title>
    <desc>Created with Sketch.</desc>
    <defs></defs>
    <g id="Page-1" stroke="none" stroke-width="1" fill="none" fill-rule="evenodd">
        <g id="a8897b349d" fill="#000000" fill-rule="nonzero">
            <path d="M9.00006171,0 C4.02931274,0 0,4.02931274 0,8.99983555 C0,13.9706257 4.02931274,18 9.00006171,18 C13.970564,18 18,13.9706257 18,8.99983555 C18,4.02931274 13.970564,0 9.00006171,0 Z M9.00006171,16.7999904 C4.69904245,16.7999904 1.2000096,13.3010603 1.2000096,8.99981498 C1.2000096,4.69900131 4.69914519,1.19992745 9.00006171,1.19992745 C13.3009575,1.19992745 16.7999698,4.69900131 16.7999698,8.99981498 C16.7999698,13.3010603 13.3009575,16.7999904 9.00006171,16.7999904 Z M9.90096802,8.98080376 L12.6807185,6.23130674 C12.9332906,5.98194102 12.9352636,5.57493621 12.6858156,5.3223849 C12.4363472,5.06966902 12.0287669,5.06771652 11.776791,5.31716452 L8.99323817,8.06992933 L6.25216769,5.32039126 C6.00074679,5.06909352 5.59444076,5.06771652 5.34312257,5.31913757 C5.09174267,5.56981869 5.09112605,5.97672064 5.34186874,6.22814169 L8.07913698,8.97373362 L5.31928145,11.7039111 C5.06670943,11.9540785 5.06473638,12.3602817 5.31418436,12.6129975 C5.44015169,12.7402392 5.60543645,12.8038292 5.77127598,12.8038292 C5.9345055,12.8038292 6.09783762,12.741534 6.22318848,12.6180123 L8.98684624,9.88471093 L11.7729477,12.6798349 C11.898319,12.8058022 12.0629255,12.8687346 12.2281074,12.8687346 C12.3926932,12.8687346 12.556601,12.8057817 12.6819724,12.6811092 C12.9332906,12.4303869 12.9339688,12.0240603 12.6832467,11.7720845 L9.90096802,8.98080376 Z" id="Shape"></path>
        </g>
    </g>
</svg>