<?xml version="1.0" encoding="UTF-8"?>
<svg width="10px" height="10px" viewBox="0 0 10 10" version="1.1" xmlns="http://www.w3.org/2000/svg" xmlns:xlink="http://www.w3.org/1999/xlink">
    <!-- Generator: Sketch 51.3 (57544) - http://www.bohemiancoding.com/sketch -->
    <title>copyright-symbol</title>
    <desc>Created with Sketch.</desc>
    <defs></defs>
    <g id="Page-1" stroke="none" stroke-width="1" fill="none" fill-rule="evenodd">
        <g id="copyright-symbol" fill="#444444" fill-rule="nonzero">
            <path d="M5,0.9375 C7.25,0.9375 9.0625,2.75 9.0625,5 C9.0625,7.25 7.25,9.0625 5,9.0625 C2.75,9.0625 0.9375,7.25 0.9375,5 C0.9375,2.75 2.75,0.9375 5,0.9375 Z M5,0 C2.25,0 0,2.25 0,5 C0,7.75 2.25,10 5,10 C7.75,10 10,7.75 10,5 C10,2.25 7.75,0 5,0 Z" id="Shape"></path>
            <path d="M6.1875,6.4375 C5.875,6.6875 5.4375,6.875 5,6.875 C3.9375,6.875 3.125,6.0625 3.125,5 C3.125,3.9375 3.9375,3.125 5,3.125 C5.5,3.125 6,3.3125 6.3125,3.6875 L7,3 C6.5,2.5 5.75,2.1875 5,2.1875 C3.4375,2.1875 2.1875,3.4375 2.1875,5 C2.1875,6.5625 3.4375,7.8125 5,7.8125 C5.6875,7.8125 6.25,7.5625 6.75,7.1875 L6.1875,6.4375 Z" id="Shape"></path>
        </g>
    </g>
</svg>