<?xml version="1.0" encoding="UTF-8"?>
<svg width="56px" height="56px" viewBox="0 0 56 56" version="1.1" xmlns="http://www.w3.org/2000/svg" xmlns:xlink="http://www.w3.org/1999/xlink">
    <!-- Generator: Sketch 51.3 (57544) - http://www.bohemiancoding.com/sketch -->
    <title>Shape</title>
    <desc>Created with Sketch.</desc>
    <defs></defs>
    <g id="Symbols" stroke="none" stroke-width="1" fill="none" fill-rule="evenodd">
        <g id="UI/Icon/Fingerprint" transform="translate(-3.000000, -3.000000)" fill="#0070C9">
            <path d="M53.2023866,13.6414427 C56.994914,18.6206697 59,24.5952918 59,30.9189777 C59,34.4360776 58.3724119,37.8681636 57.1354188,41.1183985 C56.9232841,41.6757747 56.4025899,42.0163934 55.8510397,42.0163934 C55.6851889,42.0163934 55.5165832,41.9854281 55.3523854,41.9201194 C54.6432495,41.6380533 54.292263,40.8228202 54.5677626,40.0982312 C55.6807809,37.1739769 56.2450041,34.0858877 56.2450041,30.9189777 C56.2450041,25.2275478 54.4410328,19.8508383 51.0281438,15.3704348 C50.5608965,14.756758 50.6688924,13.8728382 51.2694815,13.395409 C51.8700706,12.9174167 52.7351393,13.0283289 53.2023866,13.6414427 Z M17.1017495,10.0548639 C16.4584969,10.4869793 15.592451,10.3080167 15.1669662,9.6567288 C14.740923,9.00430821 14.9168124,8.12591903 15.5595066,7.69437 C20.1298391,4.62312274 25.4556584,3 30.960159,3 C36.5003958,3 41.8546924,4.64294455 46.4445681,7.75100373 C47.0855873,8.18481811 47.2586848,9.06433996 46.830408,9.7144952 C46.5618277,10.1228244 46.1190332,10.3442623 45.6684213,10.3442623 C45.4015161,10.3442623 45.1323774,10.2672404 44.8945079,10.1058343 C40.7652949,7.30982696 35.9464838,5.83168657 30.960159,5.83168657 C26.0056617,5.83168657 21.2130944,7.29227051 17.1017495,10.0548639 Z M13.58589,12.7649257 C8.58910934,17.5852318 5.83682334,24.0498873 5.83682334,30.9677678 C5.83682334,31.7462548 5.20194227,32.3770492 4.41841167,32.3770492 C3.63488106,32.3770492 3,31.7462548 3,30.9677678 C3,23.2809834 6.05752819,16.0981581 11.6103262,10.7423251 C12.1720172,10.2005973 13.0701555,10.212999 13.6159603,10.7722019 C14.1611977,11.3302773 14.1481483,12.2226343 13.58589,12.7649257 Z M51.4585211,40.2058451 C52.2057699,40.3526458 52.6932739,41.0794476 52.5482359,41.8311778 C51.5820515,46.8041198 49.9397586,50.7145573 47.6671297,53.4528053 C47.394701,53.7813064 47.0026022,53.9508197 46.607746,53.9508197 C46.2961625,53.9508197 45.9829247,53.8455664 45.7253858,53.6295201 C45.1408222,53.1398152 45.0614098,52.2667667 45.5494652,51.67901 C47.5215403,49.3025011 48.9653021,45.8108609 49.8410446,41.3004796 C49.987737,40.5493033 50.7151326,40.0607063 51.4585211,40.2058451 Z M40.3449716,10.4726456 C48.3311484,14.117067 53.4918033,22.1032302 53.4918033,30.8186134 C53.4918033,31.4336654 53.4918033,32.6486591 53.4054632,34.2649198 C53.3665255,35.0114889 52.7429581,35.5901639 51.9980632,35.5901639 C51.9732333,35.5901639 51.9478392,35.5896043 51.922445,35.5879253 C51.1442555,35.5476308 50.5472109,34.8889262 50.5884059,34.117173 C50.6702315,32.5747857 50.6702315,31.4096006 50.6702315,30.8499536 C50.6702315,23.1923033 46.1545879,16.2034312 39.1661189,13.0145624 C38.4579044,12.691646 38.1480958,11.8605702 38.4737052,11.1587728 C38.7993146,10.4569754 39.6356284,10.1497292 40.3449716,10.4726456 Z M11.2192107,31.0128308 C11.2192107,34.670959 10.7943613,39.1493812 7.48189016,41.3255793 C7.24266554,41.4825491 6.97353783,41.557377 6.70723117,41.557377 C6.24909344,41.557377 5.79941885,41.3345812 5.52803431,40.9244342 C5.09923545,40.2763008 5.27921813,39.4036836 5.92975113,38.9760955 C8.11718952,37.5391746 8.39816562,33.9654388 8.39816562,31.0128308 C8.39816562,18.6037756 18.5223324,8.50819672 30.9665266,8.50819672 C31.7456993,8.50819672 32.3770492,9.13776386 32.3770492,9.91473635 C32.3770492,10.6917088 31.7456993,11.321276 30.9665266,11.321276 C20.0778566,11.321276 11.2192107,20.1549075 11.2192107,31.0128308 Z M31.0685799,14.0163934 C40.3955256,14.0163934 47.9836066,21.5656563 47.9836066,30.8448885 C47.9836066,37.3395657 46.8452253,49.3994262 39.2210589,57.1983118 C38.9447801,57.4810305 38.5777241,57.6229508 38.210668,57.6229508 C37.8565801,57.6229508 37.5019284,57.4911276 37.2279049,57.2257983 C36.6702729,56.6856036 36.6573047,55.798181 37.2002771,55.2428407 C44.1297996,48.1546785 45.1644354,36.9143657 45.1644354,30.8448885 C45.1644354,23.112195 38.8410346,16.8211426 31.0685799,16.8211426 C28.5583899,16.8211426 26.0944344,17.4853072 23.942843,18.7418349 C23.2718803,19.1339388 22.4080862,18.9101198 22.0139661,18.2425895 C21.619846,17.5750592 21.844252,16.7156841 22.5157786,16.3235801 C25.099267,14.8140641 28.0565775,14.0163934 31.0685799,14.0163934 Z M17.9212016,20.4842562 C18.422256,19.8976581 19.3195989,19.8144879 19.9254192,20.2986378 C20.531809,20.7833385 20.617216,21.6513935 20.1167309,22.2374407 C18.0185656,24.6950936 16.8632935,27.8070925 16.8632935,31.0000585 C16.8632935,31.7607082 16.2261573,32.3770492 15.4398435,32.3770492 C14.6535297,32.3770492 14.0163934,31.7607082 14.0163934,31.0000585 C14.0163934,27.1681689 15.4034032,23.4337702 17.9212016,20.4842562 Z M16.7483839,36.338839 C15.6489992,42.5190786 13.0370344,46.4736371 9.39350591,47.4729226 C9.26698263,47.5081247 9.13988943,47.5245902 9.014506,47.5245902 C8.38929862,47.5245902 7.81538447,47.1106816 7.64155744,46.481586 C7.43296501,45.7258764 7.87807618,44.9440491 8.63721586,44.7362432 C12.170179,43.7670499 13.52432,38.1943303 13.9426447,35.8431707 C14.0799966,35.0715634 14.818619,34.5594296 15.5942864,34.6934247 C16.3688141,34.8302587 16.8857358,35.5672316 16.7483839,36.338839 Z M40.7324131,34.2167236 C41.5014474,34.2795015 42.0743109,34.956046 42.0117151,35.7278785 C41.4276738,42.9030616 39.0322661,52.7177211 30.9333739,58.7253465 C30.6835495,58.9108777 30.3923672,59 30.1034204,59 C29.6753098,59 29.252788,58.8032584 28.9789314,58.4316354 C28.5200817,57.8100216 28.6508622,56.9322513 29.2712314,56.4720666 C36.5273158,51.0894181 38.6896658,42.0964771 39.2262014,35.4997479 C39.2893561,34.728476 39.96282,34.1623534 40.7324131,34.2167236 Z M22.3710615,31.1773478 C22.3710615,35.5507425 21.6566029,49.9509309 12.4630776,51.6327905 C12.3770727,51.6484618 12.29163,51.6557377 12.2073115,51.6557377 C11.5423197,51.6557377 10.9515282,51.1839215 10.8267369,50.5094986 C10.6862061,49.7494436 11.1915548,49.0201713 11.9549182,48.8802496 C19.193941,47.55603 19.5604454,33.9013447 19.5604454,31.1773478 C19.5604454,25.0051189 24.603815,19.9836066 30.8029099,19.9836066 C35.1200162,19.9836066 39.1071562,22.4932433 40.9621629,26.3774716 C41.2949398,27.0754013 40.9970145,27.9098947 40.2960469,28.2417892 C39.593955,28.5731239 38.7563914,28.2764898 38.4236144,27.57856 C37.0323594,24.6648291 34.0413018,22.7820419 30.8029099,22.7820419 C26.1535887,22.7820419 22.3710615,26.5481761 22.3710615,31.1773478 Z M30.7184097,48.1542624 C31.4090839,48.5220429 31.6617418,49.3639503 31.2830402,50.0347068 C29.2994194,53.5469006 26.5532623,55.9928631 22.887157,57.5116196 C22.7046502,57.5869482 22.514729,57.6229508 22.3282299,57.6229508 C21.7744358,57.6229508 21.2474474,57.3066817 21.0164622,56.7810435 C20.7073413,56.0776077 21.0438383,55.2639485 21.7681621,54.9637421 C24.8240104,53.6981116 27.1184631,51.6492857 28.782697,48.7026099 C29.1613986,48.0318535 30.0283059,47.7870357 30.7184097,48.1542624 Z M31.622977,46.0209527 C30.9305967,45.7005611 30.6248918,44.8704555 30.9405115,44.1663781 C33.5513967,38.3377151 33.7540984,32.6866117 33.7540984,31.0930555 C33.7540984,29.5487902 32.5186098,28.2924294 31,28.2924294 C29.4813902,28.2924294 28.2459016,29.5487902 28.2459016,31.0930555 C28.2459016,31.8665884 27.6295344,32.4933685 26.8688525,32.4933685 C26.1081705,32.4933685 25.4918033,31.8665884 25.4918033,31.0930555 C25.4918033,28.004525 27.9627803,25.4918033 31,25.4918033 C34.0372197,25.4918033 36.5081967,28.004525 36.5081967,31.0930555 C36.5081967,32.8288835 36.2878689,38.9852198 33.446741,45.3269575 C33.2153967,45.8428329 32.7158033,46.147541 32.1925246,46.147541 C32.001941,46.147541 31.8080525,46.1060917 31.622977,46.0209527 Z M27.7697837,39.0566202 C26.1918434,49.1168428 22.2700553,54.5839372 16.4275193,54.8671565 C16.404172,54.8682872 16.3802551,54.8688525 16.3569078,54.8688525 C15.6023892,54.8688525 14.9731492,54.2809321 14.9361351,53.5245499 C14.8979821,52.74499 15.5033053,52.0818836 16.288574,52.044008 C21.7547049,51.7788785 24.0193994,44.5989006 24.9567108,38.6218983 C25.0774337,37.8508181 25.8040493,37.3250816 26.5824847,37.4426657 C27.3592117,37.562511 27.8905066,38.28554 27.7697837,39.0566202 Z" id="Shape"></path>
        </g>
    </g>
</svg>