<?xml version="1.0" encoding="UTF-8"?>
<svg width="32px" height="32px" viewBox="0 0 32 32" version="1.1" xmlns="http://www.w3.org/2000/svg" xmlns:xlink="http://www.w3.org/1999/xlink">
    <!-- Generator: Sketch 51.3 (57544) - http://www.bohemiancoding.com/sketch -->
    <title>Path</title>
    <desc>Created with Sketch.</desc>
    <defs></defs>
    <g id="Symbols" stroke="none" stroke-width="1" fill="none" fill-rule="evenodd">
        <g id="UI/Icon/32-loading" fill="#0070C9">
            <path d="M15.9860974,9.187604e-14 C24.2856834,9.187604e-14 32,7.14996338 32,16 C31.9841602,16.8041499 31.9322042,17.5860352 31.8332134,18.2797513 C31.5346905,20.2349495 30.4743258,20.6929282 29.5951513,20.6151033 C29.1480544,20.575504 28.7466454,20.3677285 28.4830718,20.0312552 C28.2323701,19.7111873 28.0770382,19.2675129 28.1772618,18.6133961 C28.1982495,18.5228025 28.2059957,18.4217837 28.2189402,18.335352 C28.3641641,17.5855907 28.4691555,16.8046347 28.4691555,16.0000404 C28.4691555,9.12014062 22.8645116,3.544769 15.986097,3.544769 C9.12225859,3.544769 3.53084172,9.12014062 3.53084172,16.0000404 C3.53084172,22.8652763 9.12079543,28.4552512 15.986097,28.4552512 C17.5347425,28.4552512 19.0028311,28.1786214 20.3509965,27.6768005 C22.5666304,26.7391039 24.0095843,29.7357652 21.7549923,30.9296455 C19.9989175,31.7596157 17.7287561,31.9874333 15.986097,32 C7.15163386,32 0,24.8500528 0,16.0000404 C0.151908938,6.72555927 8.08948332,0.131263795 15.986097,0 L15.9860974,9.187604e-14 Z" id="Path"></path>
        </g>
    </g>
</svg>