<?xml version="1.0" encoding="UTF-8"?>
<svg width="60px" height="54px" viewBox="0 0 60 54" version="1.1" xmlns="http://www.w3.org/2000/svg" xmlns:xlink="http://www.w3.org/1999/xlink">
    <!-- Generator: Sketch 51.3 (57544) - http://www.bohemiancoding.com/sketch -->
    <title>Shape</title>
    <desc>Created with Sketch.</desc>
    <defs></defs>
    <g id="Symbols" stroke="none" stroke-width="1" fill="none" fill-rule="evenodd">
        <g id="UI/Icon/CreditCard" transform="translate(0.000000, -3.000000)" fill="#0070C9">
            <path d="M2.9991615,18.9375 L46.875,9.09316599 L46.2669894,6.4398794 C46.0980595,5.68464763 45.328056,5.21016776 44.5714379,5.37721731 L3.45172543,14.5399656 C2.68836576,14.7070731 2.20873789,15.4623049 2.37757003,16.2174787 C2.58694924,17.1196738 2.78968459,18.0353048 2.9991615,18.9375 Z M2.90711891,12.296527 L44.6422589,3.08866917 C46.6328268,2.65055501 48.6166377,3.87865537 49.0635779,5.83046164 L53.4375,24.7838802 L50.8240166,24.7838802 L48.8401078,16.2000822 L4.86380397,25.9788356 L7.58569284,37.7491941 L7.82943385,38.7915216 C7.92422746,39.2097891 8.35079871,39.4819098 8.78412694,39.3823213 L9.10904967,39.3093295 L9.10904967,41.8187426 L9.06165286,41.8325978 C7.40961958,42.1977202 5.76434328,41.1687486 5.38516883,39.5555737 L0.0971933705,16.6388109 C-0.126276694,15.662879 0.0362825998,14.7468037 0.577918407,13.8970664 C1.11955426,13.0472811 1.91178599,12.5161649 2.90702098,12.2970839 L2.90711891,12.296527 Z M13.5379811,25.5 C11.5014617,25.5 9.84375,27.1385197 9.84375,29.1432967 L9.84375,52.8009368 C9.84375,54.8056559 11.5014617,56.4375 13.5379811,56.4375 L56.2991146,56.4375 C58.335634,56.4375 60,54.7990381 60,52.8009368 L60,29.1432967 C60,27.1385197 58.335634,25.5 56.2991146,25.5 L13.5379811,25.5 Z M55.3125,36.1754974 C55.3125,34.527226 55.3125,32.879024 55.3125,31.2306933 C55.3125,30.9092413 55.0597973,30.65625 54.7389566,30.65625 C51.0588189,30.65625 47.3786811,30.65625 43.6985434,30.65625 C43.3844178,30.65625 43.125,30.9160962 43.125,31.2306933 C43.125,32.879024 43.125,34.527226 43.125,36.1754974 C43.125,36.4901538 43.3844178,36.75 43.6985434,36.75 C47.3786811,36.75 51.0588189,36.75 54.7389566,36.75 C55.0461697,36.75 55.3125,36.4969494 55.3125,36.1754974 Z M47.4371557,50.8125 C47.1263347,50.8125 46.875,50.5474235 46.875,50.2265575 L46.875,49.054743 C46.875,48.7338265 47.1263347,48.46875 47.4371557,48.46875 L54.7570389,48.46875 C55.061261,48.46875 55.3125,48.7338265 55.3125,49.054743 L55.3125,50.2265575 C55.3125,50.5474235 55.061261,50.8125 54.7570389,50.8125 L47.4371557,50.8125 Z M37.1179611,50.8125 C36.813739,50.8125 36.5625,50.5466236 36.5625,50.2247891 L36.5625,49.05639 C36.5625,48.7275533 36.813739,48.46875 37.1179611,48.46875 L44.4445389,48.46875 C44.7486653,48.46875 45,48.7345657 45,49.05639 L45,50.2247891 C45,50.5466236 44.7486653,50.8125 44.4445389,50.8125 L37.1179611,50.8125 Z M26.8053655,50.8125 C26.501239,50.8125 26.25,50.5466236 26.25,50.2247891 L26.25,49.05639 C26.25,48.7275533 26.501239,48.46875 26.8053655,48.46875 L34.1321345,48.46875 C34.4361653,48.46875 34.6875,48.7345657 34.6875,49.05639 L34.6875,50.2247891 C34.6875,50.5466236 34.4361653,50.8125 34.1321345,50.8125 L26.8053655,50.8125 Z M16.0242111,50.8125 C15.7200847,50.8125 15.46875,50.5466236 15.46875,50.2247891 L15.46875,49.05639 C15.46875,48.7275533 15.7200847,48.46875 16.0242111,48.46875 L23.3508845,48.46875 C23.655011,48.46875 23.90625,48.7345657 23.90625,49.05639 L23.90625,50.2247891 C23.90625,50.5466236 23.655011,50.8125 23.3508845,50.8125 L16.0242111,50.8125 Z" id="Shape"></path>
        </g>
    </g>
</svg>