<?xml version="1.0" encoding="UTF-8"?>
<svg width="80px" height="20px" viewBox="0 0 80 20" version="1.1" xmlns="http://www.w3.org/2000/svg" xmlns:xlink="http://www.w3.org/1999/xlink">
    <!-- Generator: Sketch 51.3 (57544) - http://www.bohemiancoding.com/sketch -->
    <title>Combined Shape</title>
    <desc>Created with Sketch.</desc>
    <defs></defs>
    <g id="Symbols" stroke="none" stroke-width="1" fill="none" fill-rule="evenodd">
        <g id="Rnd/Logo" fill="#000000">
            <path d="M4.94831102,20 L4.94831102,5.77960338 L0,5.77960338 L0,2.5 L13.5,2.5 L13.5,5.77960338 L8.57687718,5.77960338 L8.57687718,20 L4.94831102,20 Z M21.9098998,20 L21.9028431,13.3639821 L15.5,7.47346614 L18.1741665,5 L23.7970955,10.1895681 L29.3000614,5 L32,7.47346614 L25.6775414,13.3639821 L25.6845981,20 L21.9098998,20 Z M35,20 L35,2.5 L38.683934,2.5 L38.683934,16.7203966 L46,16.7203966 L46,20 L35,20 Z M48.5,20 L48.5,2.5 L61,2.5 L61,5.77960338 L52.2603316,5.77960338 L52.2603316,9.47892332 L52.2734753,9.47892332 L52.2734753,12.7585267 L52.2603316,12.7585267 L52.2603316,16.7203966 L61,16.7203966 L61,20 L48.5,20 Z M26.5,2.5001438 L23.7501582,5 L21,2.5001438 L23.7501582,0 L26.5,2.5001438 Z M60,11.4998562 L57.2501582,14 L54.5,11.4998562 L57.2501582,9 L60,11.4998562 Z M76.1368786,8.14073613 C76.1368786,6.67172818 75.0219296,5.77960338 73.5443081,5.77960338 L69.6814859,5.77960338 L69.6814859,10.5021717 L73.5443081,10.5021717 C75.0219296,10.5021717 76.1368786,9.61034972 76.1368786,8.14073613 Z M75.7739067,20 L72.3775916,13.7817751 L69.6814859,13.7817751 L69.6814859,20 L66,20 L66,2.5 L74.0889155,2.5 C77.6926004,2.5 79.8964648,4.88747859 79.8964648,8.14073613 C79.8964648,11.2368271 77.9777711,12.8896503 76.1111444,13.3357127 L80,20 L75.7739067,20 Z" id="Combined-Shape"></path>
        </g>
    </g>
</svg>