<?xml version="1.0" encoding="UTF-8"?>
<svg width="112px" height="28px" viewBox="0 0 112 28" version="1.1" xmlns="http://www.w3.org/2000/svg" xmlns:xlink="http://www.w3.org/1999/xlink">
    <!-- Generator: Sketch 51.3 (57544) - http://www.bohemiancoding.com/sketch -->
    <title>tv_logo</title>
    <desc>Created with Sketch.</desc>
    <defs></defs>
    <g id="Page-1" stroke="none" stroke-width="1" fill="none" fill-rule="evenodd">
        <g id="tv_logo" fill="#000000" fill-rule="nonzero">
            <path d="M6.9276354,28 L6.9276354,8.09144473 L0,8.09144473 L0,3.5 L18.9,3.5 L18.9,8.09144473 L12.0076281,8.09144473 L12.0076281,28 L6.9276354,28 Z M30.6738597,28 L30.6639803,18.7095749 L21.7,10.4628526 L25.4438331,7 L33.3159337,14.2653953 L41.0200859,7 L44.8,10.4628526 L35.9485579,18.7095749 L35.9584373,28 L30.6738597,28 Z M49,28 L49,3.5 L54.1575076,3.5 L54.1575076,23.4085553 L64.4,23.4085553 L64.4,28 L49,28 Z M67.9,28 L67.9,3.5 L85.4,3.5 L85.4,8.09144473 L73.164464,8.09144473 L73.164464,13.2704927 L73.1828653,13.2704927 L73.1828653,17.8619374 L73.164464,17.8619374 L73.164464,23.4085553 L85.4,23.4085553 L85.4,28 L67.9,28 Z M37.1,3.50020132 L33.2502215,7 L29.4,3.50020132 L33.2502215,0 L37.1,3.50020132 Z M84,16.0997987 L80.1502213,19.6 L76.3,16.0997987 L80.1502213,12.6 L84,16.0997987 Z M106.59163,11.3970306 C106.59163,9.34041947 105.030701,8.09144473 102.962031,8.09144473 L97.55408,8.09144473 L97.55408,14.7030404 L102.962031,14.7030404 C105.030701,14.7030404 106.59163,13.4544896 106.59163,11.3970306 Z M106.083469,28 L101.328628,19.2944851 L97.55408,19.2944851 L97.55408,28 L92.4,28 L92.4,3.5 L103.724482,3.5 C108.769641,3.5 111.855051,6.84247 111.855051,11.3970306 C111.855051,15.7315579 109.168879,18.0455104 106.555602,18.6699978 L112,28 L106.083469,28 Z" id="Combined-Shape"></path>
        </g>
    </g>
</svg>